<?xml version="1.0" encoding="UTF-8" standalone="no"?>
<svg
   xmlns:dc="http://purl.org/dc/elements/1.1/"
   xmlns:cc="http://creativecommons.org/ns#"
   xmlns:rdf="http://www.w3.org/1999/02/22-rdf-syntax-ns#"
   xmlns:svg="http://www.w3.org/2000/svg"
   xmlns="http://www.w3.org/2000/svg"
   xmlns:sodipodi="http://sodipodi.sourceforge.net/DTD/sodipodi-0.dtd"
   xmlns:inkscape="http://www.inkscape.org/namespaces/inkscape"
   width="210mm"
   height="297mm"
   viewBox="0 0 210 297"
   version="1.1"
   id="svg8"
   sodipodi:docname="logo.svg"
   inkscape:version="1.0.2 (e86c8708, 2021-01-15)">
  <defs
     id="defs2" />
  <sodipodi:namedview
     id="base"
     pagecolor="#ffffff"
     bordercolor="#666666"
     borderopacity="1.0"
     inkscape:pageopacity="0.0"
     inkscape:pageshadow="2"
     inkscape:zoom="0.5"
     inkscape:cx="526.15297"
     inkscape:cy="429.1881"
     inkscape:document-units="mm"
     inkscape:current-layer="layer1"
     inkscape:document-rotation="0"
     showgrid="false"
     inkscape:window-width="1398"
     inkscape:window-height="775"
     inkscape:window-x="0"
     inkscape:window-y="23"
     inkscape:window-maximized="0" />
  <metadata
     id="metadata5">
    <rdf:RDF>
      <cc:Work
         rdf:about="">
        <dc:format>image/svg+xml</dc:format>
        <dc:type
           rdf:resource="http://purl.org/dc/dcmitype/StillImage" />
        <dc:title></dc:title>
      </cc:Work>
    </rdf:RDF>
  </metadata>
  <g
     inkscape:label="Livello 1"
     inkscape:groupmode="layer"
     id="layer1">
    <g
       id="g3815"
       style="stroke:#ffffff"
       inkscape:export-filename="/Users/francescocottone/logo.png"
       inkscape:export-xdpi="126.03"
       inkscape:export-ydpi="126.03"
       transform="translate(2.7318249,62.294116)">
      <path
         id="rect15923"
         style="color:#000000;font-style:normal;font-variant:normal;font-weight:normal;font-stretch:normal;font-size:medium;line-height:normal;font-family:sans-serif;font-variant-ligatures:normal;font-variant-position:normal;font-variant-caps:normal;font-variant-numeric:normal;font-variant-alternates:normal;font-variant-east-asian:normal;font-feature-settings:normal;font-variation-settings:normal;text-indent:0;text-align:start;text-decoration:none;text-decoration-line:none;text-decoration-style:solid;text-decoration-color:#000000;letter-spacing:normal;word-spacing:normal;text-transform:none;writing-mode:lr-tb;direction:ltr;text-orientation:mixed;dominant-baseline:auto;baseline-shift:baseline;text-anchor:start;white-space:normal;shape-padding:0;shape-margin:0;inline-size:0;clip-rule:nonzero;display:inline;overflow:visible;visibility:visible;opacity:1;isolation:auto;mix-blend-mode:normal;color-interpolation:sRGB;color-interpolation-filters:linearRGB;solid-color:#000000;solid-opacity:1;vector-effect:none;fill:#000000;fill-opacity:1;fill-rule:nonzero;stroke:#ffffff;stroke-width:15.1181;stroke-linecap:butt;stroke-linejoin:miter;stroke-miterlimit:4;stroke-dasharray:none;stroke-dashoffset:0;stroke-opacity:1;paint-order:stroke fill markers;color-rendering:auto;image-rendering:auto;shape-rendering:auto;text-rendering:auto;enable-background:accumulate;stop-color:#000000;stop-opacity:1"
         d="m 650.5,100.99805 -3.75,0.47265 -53.42969,6.71094 -17.45898,11.21289 -18.70508,-6.67383 -101.13281,12.70508 -19.76172,5.04883 -23.58399,0.35547 -33.91211,10.17969 -33.01953,-1.73633 -113.46679,14.24804 -7.22852,11.1543 -9.77344,-9.02148 -21.26562,2.67187 -14.56445,6.5918 -12.32032,-3.21094 -92.695309,11.64258 4.517578,35.94922 9.759765,2.58398 -8.800781,5.07031 1.941406,15.44336 13.052735,0.73829 -12.564453,3.16601 13.066406,104.00391 20.136723,2.70898 -19.060551,5.88477 1.654297,13.15429 7.558594,2.69336 -6.732422,3.88282 5.816402,46.33203 1.38282,-2.19336 5.96289,0.0273 -5.04102,-40.12695 16.55664,-9.54492 -18.58789,-6.62891 -0.2793,-2.24414 29.40235,-9.08008 -0.61328,-7.35937 -31.38086,-4.21485 -11.507815,-91.60351 30.058595,-7.56641 -0.70899,-7.43945 -31.453121,-1.7793 -0.53125,-4.21484 20.328121,-11.72266 -22.550777,-5.97265 -2.9375,-23.39258 83.746097,-10.51953 13.50195,3.52929 15.96094,-7.22851 16.64453,-2.08789 13.77539,12.71093 10.20117,-15.72265 109.3125,-13.73047 33.66016,1.77148 34.16406,-10.2539 23.42969,-0.35352 20.16797,-5.15234 98.86523,-12.42383 20.51367,7.31445 19.14258,-12.29101 47.98242,-6.02344 1.66016,13.25781 -9.97266,14.33594 9.74414,8.03125 -25.0625,12.0918 30.48047,6.85156 21.27539,169.39062 -21.00195,14.82422 24.09375,9.79492 0.76758,6.14258 -21.03711,7.25586 0.69336,7.31446 22.58008,3.22656 4.8457,38.58398 4.40039,0.0586 v -8.16602 h 2.20312 l -4.66406,-37.14258 -12.80078,-1.83008 12.04688,-4.15625 -2.08789,-16.625 -15.38477,-6.25195 13.41406,-9.46289 -22.50781,-179.16602 -14.49024,-3.26367 16.1504,-7.78711 -13.47852,-11.11718 7.6543,-10.99219 z"
         transform="scale(0.26458333)" />
      <path
         id="path3712"
         style="color:#000000;font-style:normal;font-variant:normal;font-weight:normal;font-stretch:normal;font-size:medium;line-height:normal;font-family:sans-serif;font-variant-ligatures:normal;font-variant-position:normal;font-variant-caps:normal;font-variant-numeric:normal;font-variant-alternates:normal;font-variant-east-asian:normal;font-feature-settings:normal;font-variation-settings:normal;text-indent:0;text-align:start;text-decoration:none;text-decoration-line:none;text-decoration-style:solid;text-decoration-color:#000000;letter-spacing:normal;word-spacing:normal;text-transform:none;writing-mode:lr-tb;direction:ltr;text-orientation:mixed;dominant-baseline:auto;baseline-shift:baseline;text-anchor:start;white-space:normal;shape-padding:0;shape-margin:0;inline-size:0;clip-rule:nonzero;display:inline;overflow:visible;visibility:visible;isolation:auto;mix-blend-mode:normal;color-interpolation:sRGB;color-interpolation-filters:linearRGB;solid-color:#000000;solid-opacity:1;vector-effect:none;fill:#000000;fill-opacity:1;fill-rule:nonzero;stroke:#ffffff;stroke-width:15.1181;stroke-linecap:butt;stroke-linejoin:miter;stroke-miterlimit:4;stroke-dasharray:none;stroke-dashoffset:0;stroke-opacity:1;paint-order:stroke fill markers;color-rendering:auto;image-rendering:auto;shape-rendering:auto;text-rendering:auto;enable-background:accumulate;stop-color:#000000"
         d="m 34.576172,408.66211 v 3.7793 39.79492 H 9.4472656 c -2.9065768,3e-5 -5.3710937,2.45694 -5.3710937,5.36914 v 37.97461 c 0,2.91219 2.4644938,5.36914 5.3710937,5.36914 H 34.576172 v 50.57422 h 54.839844 v -8.15821 h 10.955074 l 8.73243,4.12696 534.1914,1.15234 14.07031,-5.06445 26.27149,-0.18946 v 8.13282 h 54.83984 v -50.57422 h 25.12696 c 2.9066,0 5.37109,-2.45694 5.37109,-5.36914 v -37.97461 c 0,-2.9122 -2.46452,-5.3691 -5.37109,-5.36914 h -25.12696 v -39.79492 -3.7793 h -54.83984 v 8.11133 l -13.44922,-0.1836 -6.47461,-5.08007 -559.63477,-2.53125 -4.947261,7.84765 h -9.714843 v -8.16406 z m 7.560547,7.55859 h 39.720703 v 100.24805 c -7.022007,3.03532 -22.889838,8.29225 -39.720703,3.13086 v -15.27149 c 5.210399,2.83513 10.879633,3.8968 16.341797,4.23243 7.897984,0.48529 15.628197,-0.32782 22.21289,0.35351 l 0.783203,-7.51367 c -7.716306,-0.79846 -15.508106,0.0466 -22.529297,-0.38477 -6.429826,-0.39501 -11.98406,-1.68943 -16.808593,-5.80468 z m 649.058591,0 h 39.72266 v 36.01563 3.77929 35.41993 c -12.64977,-0.82072 -25.17271,-8.2639 -39.72266,-10.95313 z m -582.95508,0.33203 552.84571,2.50977 4.87109,3.82227 -1.12891,-0.0215 -0.24414,13.04492 -10.82226,8.95313 10.51172,7.90039 -0.23633,12.91016 -28.48633,11.86914 28.07422,10.2246 -0.62891,33.85352 -24.00586,12.64453 11.67188,3.69531 -8.68164,3.12696 -531.17188,-1.15235 -7.45703,-3.52148 0.19336,-41.75977 14.09375,-7.22656 -14.01953,-8.83594 0.0898,-16.9414 13.13086,-9.23438 -13.03515,-11.36914 0.0898,-17.59765 z m 564.125,7.625 11.27149,0.15625 v 111.4961 l -16.2168,0.11719 0.17578,-0.55274 -9.07226,-2.87305 11.95117,-6.30273 0.8125,-43.70898 -14.94922,-5.44727 15.16406,-6.3125 0.4043,-21.70898 -5.94141,-4.4668 6.11914,-5.05664 z m -582.949214,0.20704 h 6.912109 l -0.09766,20.08593 8.378915,7.3086 -8.437509,5.92773 -0.132813,25.03906 6.355472,4 -6.384768,3.2793 -0.214844,45.78125 h -6.378906 z m -77.78125,35.41015 h 22.939453 v 18.62891 c -12.863507,9.01855 -18.406533,6.56082 -22.939453,2.51758 z m 726.841794,0 h 22.93946 v 33.5957 h -22.93946 z m -47.28125,28.45703 c 12.37482,2.80636 25.04765,10.21901 39.72266,10.79883 v 1.89844 2.73047 c -5.05675,4.52899 -16.15723,8.2015 -39.72266,-3.08985 z"
         transform="scale(0.26458333)" />
      <g
         aria-label="SCROLLS"
         transform="matrix(1.0096253,0,0,0.99046647,0.02008261,0.38379644)"
         id="text852"
         style="font-style:normal;font-variant:normal;font-weight:normal;font-stretch:normal;font-size:32.7719px;line-height:1.25;font-family:Gamaliel;-inkscape-font-specification:Gamaliel;stroke:#ffffff;stroke-width:4;stroke-miterlimit:4;stroke-dasharray:none;stroke-opacity:1;paint-order:stroke fill markers">
        <path
           d="m 50.127381,117.10467 -6.55438,4.91579 v 2.62175 c 0,2.9167 2.326805,5.2435 5.243504,5.2435 h 3.604909 c 0.720982,0 1.310876,0.5899 1.310876,1.31088 v 4.58806 h -4.915785 c -1.114244,0 -1.966314,-0.85207 -1.966314,-1.96631 v -2.94947 l -3.932628,1.63859 v 1.31088 c 0,3.04779 2.294033,5.53845 5.243504,5.86617 v 0.0328 h 0.655438 3.604909 l 5.243504,-3.93263 v -4.58806 c 0,-2.88393 -2.359576,-5.24351 -5.243504,-5.24351 h -3.604909 c -0.753753,0 -1.310876,-0.55712 -1.310876,-1.31087 v -3.60491 h 4.260347 c 0.360491,0 0.655438,0.29495 0.655438,0.65544 v 2.94947 l 3.932628,-1.6386 v -1.31087 c 0,-2.52344 -2.064629,-4.58807 -4.588066,-4.58807 z"
           style="font-style:normal;font-variant:normal;font-weight:normal;font-stretch:normal;font-family:Gamaliel;-inkscape-font-specification:Gamaliel;stroke:#ffffff;stroke-width:4;stroke-miterlimit:4;stroke-dasharray:none;stroke-opacity:1;paint-order:stroke fill markers"
           id="path3631" />
        <path
           d="m 68.128883,117.43239 -6.55438,4.91578 v 3.60491 h -0.655438 l -1.310876,3.93263 h 1.966314 v 2.62175 c 0,3.99818 3.211646,7.20982 7.209818,7.20982 h 3.27719 l 2.621752,-3.93263 h -5.898942 c -1.835226,0 -3.27719,-1.44196 -3.27719,-3.27719 v -11.14244 h 7.865256 l 1.310876,-3.93263 z"
           style="font-style:normal;font-variant:normal;font-weight:normal;font-stretch:normal;font-family:Gamaliel;-inkscape-font-specification:Gamaliel;stroke:#ffffff;stroke-width:4;stroke-miterlimit:4;stroke-dasharray:none;stroke-opacity:1;paint-order:stroke fill markers"
           id="path3633" />
        <path
           d="m 76.664939,117.43239 -1.310876,3.93263 h 3.27719 l -1.310876,1.31087 v 3.27719 h -0.655438 l -1.310876,3.93263 h 1.966314 v 5.89894 h -0.655438 l -1.310876,3.93263 h 1.966314 c 2.162946,0 3.932628,-1.73691 3.932628,-3.93263 v -5.89894 h 5.571223 c 0.360491,0 0.655438,0.29495 0.655438,0.65544 v 5.2435 c 0,2.19572 1.736911,3.93263 3.932628,3.93263 h 0.655438 l 1.310876,-3.93263 h -1.966314 v -5.2435 c 0,-1.93354 -1.245332,-3.60491 -2.949471,-4.26035 l 2.294033,-2.29403 v -1.31088 c 0,-2.88392 -2.359576,-5.2435 -5.243504,-5.2435 z m 4.588066,3.93263 h 4.260347 c 0.720982,0 1.310876,0.58989 1.310876,1.31087 v 3.27719 h -4.260347 l -1.310876,1.31088 z"
           style="font-style:normal;font-variant:normal;font-weight:normal;font-stretch:normal;font-family:Gamaliel;-inkscape-font-specification:Gamaliel;stroke:#ffffff;stroke-width:4;stroke-miterlimit:4;stroke-dasharray:none;stroke-opacity:1;paint-order:stroke fill markers"
           id="path3635" />
        <path
           d="m 102.56498,117.10467 -6.554379,4.91579 v 3.93262 h -0.655438 l -1.310876,3.93263 h 1.966314 v 2.62175 c 0,3.99818 3.211646,7.20982 7.209819,7.20982 h 2.29403 l 5.24351,-3.93263 v -12.1256 c 0,-3.60491 -2.94947,-6.55438 -6.55438,-6.55438 z m -2.621751,3.93263 h 4.260351 c 1.44196,0 2.62175,1.17979 2.62175,2.62175 v 12.1256 h -3.60491 c -1.83523,0 -3.277191,-1.44196 -3.277191,-3.27719 z"
           style="font-style:normal;font-variant:normal;font-weight:normal;font-stretch:normal;font-family:Gamaliel;-inkscape-font-specification:Gamaliel;stroke:#ffffff;stroke-width:4;stroke-miterlimit:4;stroke-dasharray:none;stroke-opacity:1;paint-order:stroke fill markers"
           id="path3637" />
        <path
           d="m 118.63345,116.77695 -3.93263,1.31088 v 7.86525 h -0.65544 l -1.31087,3.93263 h 1.96631 v 5.57122 h -0.65544 l -1.31087,3.93263 h 13.76419 l 1.31088,-3.93263 h -10.48701 l 1.31088,-1.31087 z"
           style="font-style:normal;font-variant:normal;font-weight:normal;font-stretch:normal;font-family:Gamaliel;-inkscape-font-specification:Gamaliel;stroke:#ffffff;stroke-width:4;stroke-miterlimit:4;stroke-dasharray:none;stroke-opacity:1;paint-order:stroke fill markers"
           id="path3639" />
        <path
           d="m 134.37933,116.77695 -3.93263,1.31088 v 7.86525 h -0.65544 l -1.31087,3.93263 h 1.96631 v 5.57122 h -0.65544 l -1.31087,3.93263 h 13.7642 l 1.31087,-3.93263 h -10.48701 l 1.31088,-1.31087 z"
           style="font-style:normal;font-variant:normal;font-weight:normal;font-stretch:normal;font-family:Gamaliel;-inkscape-font-specification:Gamaliel;stroke:#ffffff;stroke-width:4;stroke-miterlimit:4;stroke-dasharray:none;stroke-opacity:1;paint-order:stroke fill markers"
           id="path3641" />
        <path
           d="m 152.09152,117.10467 -6.55438,4.91579 v 2.62175 c 0,2.9167 2.3268,5.2435 5.2435,5.2435 h 3.60491 c 0.72098,0 1.31087,0.5899 1.31087,1.31088 v 4.58806 h -4.91578 c -1.11425,0 -1.96631,-0.85207 -1.96631,-1.96631 v -2.94947 l -3.93263,1.63859 v 1.31088 c 0,3.04779 2.29403,5.53845 5.2435,5.86617 v 0.0328 h 0.65544 3.60491 l 5.2435,-3.93263 v -4.58806 c 0,-2.88393 -2.35957,-5.24351 -5.2435,-5.24351 h -3.60491 c -0.75375,0 -1.31088,-0.55712 -1.31088,-1.31087 v -3.60491 h 4.26035 c 0.36049,0 0.65544,0.29495 0.65544,0.65544 v 2.94947 l 3.93263,-1.6386 v -1.31087 c 0,-2.52344 -2.06463,-4.58807 -4.58807,-4.58807 z"
           style="font-style:normal;font-variant:normal;font-weight:normal;font-stretch:normal;font-family:Gamaliel;-inkscape-font-specification:Gamaliel;stroke:#ffffff;stroke-width:4;stroke-miterlimit:4;stroke-dasharray:none;stroke-opacity:1;paint-order:stroke fill markers"
           id="path3643" />
      </g>
      <g
         id="g3598"
         style="stroke:#ffffff;stroke-width:3.14875;stroke-miterlimit:4;stroke-dasharray:none;paint-order:stroke fill markers"
         transform="matrix(1.265486,0,0,1.2752249,-27.141555,-21.313374)">
        <path
           d="m 69.195703,51.053594 c -3.587553,0.268366 -7.379013,2.212351 -10.240584,4.678061 -1.907058,1.582044 -3.318635,3.473161 -4.848419,5.355547 -5.399061,6.91258 -9.369799,15.15817 -11.92305,24.047967 -1.038242,4.736727 -1.236237,9.853236 1.291402,13.303346 0.736817,0.944381 1.565245,1.948305 3.057596,1.915935 3.248696,0.16675 6.977112,-2.272187 9.885966,-4.847754 1.800672,-1.561348 3.400394,-3.331131 5.224707,-4.691989 0.248233,-0.137518 0.667864,-0.498576 0.841233,-0.43531 -0.20292,1.809018 -0.545717,4.080809 0.890486,5.051183 0.595955,0.291025 1.224417,0.817359 2.085352,0.308974 0.577239,-0.255516 0.986035,-0.910246 1.183045,-1.412844 1.114092,-0.245806 1.121972,1.427754 2.126724,1.350951 0.886545,-0.448355 0.87768,-1.579395 1.251014,-2.348789 2.318808,-6.696612 4.246552,-12.908959 5.291691,-18.614549 0.150712,-2.639186 -1.969116,-4.823572 -4.919342,-4.418179 -3.5186,0.384903 -7.428265,3.16657 -8.976764,6.569501 -0.376289,1.373854 1.160389,2.318747 2.604473,1.440035 0.602851,0.782388 -1.140689,1.597796 -1.610557,2.383659 -3.446692,3.515161 -7.056902,7.393539 -11.551687,10.330959 -1.527813,-3.719958 -0.611716,-8.417803 0.759474,-12.650876 1.134779,-3.454736 2.349345,-6.770585 3.971723,-9.918735 2.245916,-4.47865 5.259185,-8.786334 9.511647,-11.887843 1.84106,-1.24031 4.407116,-1.119859 5.26805,0.163903 1.718912,1.40127 2.125738,3.806558 4.315506,4.978795 1.210626,-0.08622 2.195677,-1.131236 2.463611,-2.068359 0.418646,-1.168706 0.05714,-2.225887 -0.168444,-3.237949 -0.793951,-2.638146 -2.994553,-4.811949 -6.315158,-5.276979 -0.472825,-0.0563 -0.957469,-0.109465 -1.469695,-0.06866 z"
           style="font-size:10.5833px;line-height:1.25;font-family:'Alita Brush';-inkscape-font-specification:'Alita Brush';fill:#000000;stroke:#ffffff;stroke-width:3.14875;stroke-miterlimit:4;stroke-dasharray:none;paint-order:stroke fill markers"
           id="path1049" />
        <path
           d="m 118.3704,49.126284 c -1.31012,0.145659 -2.0164,1.147421 -2.38086,2.078266 -0.37039,0.93418 -0.85207,1.852274 -1.05696,2.86051 -1.52289,5.82813 -1.55638,12.559739 -4.17465,19.496546 -2.13952,7.931849 -5.04838,16.841724 -5.41284,27.274944 0.71908,2.09474 1.97403,4.43823 4.12144,4.8911 1.31111,0.15713 2.54045,-0.59088 3.77471,-0.97341 2.95319,-1.1997 5.83643,-2.68935 8.9817,-2.84178 7.5051,-1.4408 14.03598,-5.183012 19.48429,-9.570735 0.46987,-0.667678 1.30421,-1.434031 0.84616,-2.461395 -0.78016,-0.712699 -0.92496,-2.045955 -1.95533,-2.459833 -0.55753,-0.06886 -1.06483,0.127895 -1.64108,0.03981 -7.51594,-0.07184 -14.79251,1.638866 -21.91541,4.051608 -0.93383,0.0259 -0.95451,-1.200682 -0.81267,-1.88474 0.56542,-3.055958 0.96436,-6.025824 1.34755,-8.882891 0.91019,-5.480638 1.21753,-10.655283 1.69527,-15.435707 1.24116,-5.11445 1.76324,-10.019091 1.28156,-14.561596 -0.26892,-0.792935 -1.04514,-1.682682 -2.18288,-1.620691 z"
           style="font-size:10.5833px;line-height:1.25;font-family:'Alita Brush';-inkscape-font-specification:'Alita Brush';fill:#000000;stroke:#ffffff;stroke-width:3.14875;stroke-miterlimit:4;stroke-dasharray:none;paint-order:stroke fill markers"
           id="path1053" />
        <path
           d="m 141.81067,51.555995 c -3.85845,0.128886 -7.12291,1.587832 -10.66219,2.553792 -0.41963,1.126725 -0.49351,2.562424 -1.81742,3.255604 -0.54079,0.501519 -1.29829,1.163507 -0.93284,1.971352 0.53488,0.801566 1.73073,0.653651 2.49513,0.422068 0.28074,-0.07494 0.61073,-0.236194 0.78706,0.114565 0.73879,0.968805 0.0798,2.079149 0.6383,3.119165 1.68937,7.890997 5.5951,16.520467 8.85265,26.462583 0.67181,1.547223 1.21752,3.279733 2.45475,4.620484 -0.13593,-0.622558 -0.7772,-1.40539 -0.46199,-1.926918 0.38023,0.0412 0.39993,0.816279 0.55754,1.167921 0.44722,1.679935 0.46593,3.792924 2.05678,5.108564 0.32409,0.290435 0.64521,0.465619 0.39304,-0.10152 -0.13594,-0.75272 -0.59103,-1.924074 0.1123,-2.25345 0.70529,-0.139087 0.71514,0.904068 0.8964,1.415591 0.0739,0.477683 0.47675,1.597052 0.9811,1.17361 0.0108,-1.796756 -1.33277,-3.83461 -0.61861,-5.367023 0.36152,-0.846294 1.44014,-0.48602 2.20651,-0.643744 6.15066,-0.651396 10.2071,-5.140021 11.60882,-10.342602 2.21243,-6.138585 2.37398,-12.938404 -0.33688,-19.222569 -0.93088,-2.078365 -2.0361,-4.15869 -3.8811,-5.86354 -3.55998,-3.422253 -8.75316,-5.514546 -13.35433,-5.613026 -0.66294,-0.04021 -1.32194,-0.05679 -1.97502,-0.05091 z m 0.64126,5.378108 c 2.72859,0.04041 5.92015,0.980967 8.05377,3.047561 1.28648,1.304654 1.93464,2.913182 2.40845,4.466389 1.08848,3.986253 0.14973,7.859854 -1.02937,11.656692 -1.1604,3.213887 -3.3216,6.169787 -6.66585,7.785916 -2.28039,-8.805775 -4.62185,-16.650955 -7.37704,-23.595315 -0.37432,-0.850708 -1.01263,-1.68533 -1.1269,-2.532212 0.40388,-0.899359 1.80364,-0.772141 2.83203,-0.775476 0.96239,-0.036 1.92971,-0.05924 2.90491,-0.05355 z"
           style="font-size:10.5833px;line-height:1.25;font-family:'Alita Brush';-inkscape-font-specification:'Alita Brush';fill:#000000;stroke:#ffffff;stroke-width:3.14875;stroke-miterlimit:4;stroke-dasharray:none;paint-order:stroke fill markers"
           id="path1055" />
        <g
           id="g3586"
           transform="matrix(0.7308075,0,0,0.74519037,-82.783633,-44.395683)"
           style="stroke:#ffffff;stroke-width:4.26681;stroke-miterlimit:4;stroke-dasharray:none;paint-order:stroke fill markers">
          <path
             id="path3561"
             style="color:#000000;font-style:normal;font-variant:normal;font-weight:normal;font-stretch:normal;font-size:medium;line-height:normal;font-family:sans-serif;font-variant-ligatures:normal;font-variant-position:normal;font-variant-caps:normal;font-variant-numeric:normal;font-variant-alternates:normal;font-variant-east-asian:normal;font-feature-settings:normal;font-variation-settings:normal;text-indent:0;text-align:start;text-decoration:none;text-decoration-line:none;text-decoration-style:solid;text-decoration-color:#000000;letter-spacing:normal;word-spacing:normal;text-transform:none;writing-mode:lr-tb;direction:ltr;text-orientation:mixed;dominant-baseline:auto;baseline-shift:baseline;text-anchor:start;white-space:normal;shape-padding:0;shape-margin:0;inline-size:0;clip-rule:nonzero;display:inline;overflow:visible;visibility:visible;isolation:auto;mix-blend-mode:normal;color-interpolation:sRGB;color-interpolation-filters:linearRGB;solid-color:#000000;solid-opacity:1;vector-effect:none;fill:#000000;fill-opacity:1;fill-rule:nonzero;stroke:#ffffff;stroke-width:4.26681;stroke-linecap:butt;stroke-linejoin:miter;stroke-miterlimit:4;stroke-dasharray:none;stroke-dashoffset:0;stroke-opacity:1;paint-order:stroke fill markers;color-rendering:auto;image-rendering:auto;shape-rendering:auto;text-rendering:auto;enable-background:accumulate;stop-color:#000000"
             d="m 239.30072,143.75711 c -8.47964,0 -15.38086,6.85393 -15.38086,15.28907 0,8.43513 6.90122,15.28711 15.38086,15.2871 8.47963,1e-5 15.38086,-6.85197 15.38086,-15.2871 0,-8.43514 -6.90123,-15.28907 -15.38086,-15.28907 z m 0,2 c 7.40576,0 13.38086,5.94187 13.38086,13.28907 0,7.34719 -5.9751,13.28711 -13.38086,13.2871 -7.40577,1e-5 -13.38086,-5.93991 -13.38086,-13.2871 0,-7.3472 5.97509,-13.28907 13.38086,-13.28907 z m -0.0981,-6.67045 a 20.089196,19.958856 0 0 0 -19.99103,19.95899 20.089196,19.958856 0 0 0 0.016,0.79271 l 6.88434,-6.48901 a 14.381529,14.288218 0 0 1 8.15661,-7.68894 l 6.88381,-6.48849 a 20.089196,19.958856 0 0 0 -1.85156,-0.0853 20.089196,19.958856 0 0 0 -0.0982,0 z m 3.60702,0.30696 0.23254,0.24649 0.1819,-0.16898 a 20.089196,19.958856 0 0 0 -0.41444,-0.0775 z m 1.30379,0.27491 0.8506,0.91881 -4.54908,4.21266 a 14.381529,14.288218 0 0 1 3.23753,0.62684 l 4.66948,-4.21421 a 20.089196,19.958856 0 0 0 -4.20853,-1.5441 z m 5.23637,2.09497 0.60462,0.66972 -4.23747,3.82458 a 14.381529,14.288218 0 0 1 7.78196,10.5115 l 4.21731,-3.52744 1.18132,1.41181 A 20.089196,19.958856 0 0 0 249.3498,141.7635 Z m 9.5865,13.06431 -5.25498,4.39509 a 14.381529,14.288218 0 0 1 -14.38051,14.11076 14.381529,14.288218 0 0 1 -2.27428,-0.17983 l -5.06223,4.23436 -1.28312,-1.5353 3.94136,-3.29644 a 14.381529,14.288218 0 0 1 -8.74727,-8.38967 l -4.43642,4.00441 -0.01,-0.0109 a 20.089196,19.958856 0 0 0 17.87178,10.84379 20.089196,19.958856 0 0 0 20.08921,-19.95847 20.089196,19.958856 0 0 0 -0.45372,-4.21784 z m -34.01653,4.32222 -4.76818,4.41575 -0.54622,-0.58911 a 20.089196,19.958856 0 0 0 0.9648,3.28352 l 4.67,-4.21525 a 14.381529,14.288218 0 0 1 -0.3204,-2.89491 z m -5.59346,2.0252 a 20.089196,19.958856 0 0 0 0.0455,0.38757 l 0.17053,-0.15813 z m 19.97538,-23.08889 c -11.63189,-1e-5 -21.08984,9.39204 -21.08984,20.95898 0,11.56694 9.45795,20.95899 21.08984,20.95899 11.63189,0 21.08789,-9.39205 21.08789,-20.95899 10e-6,-11.56694 -9.45599,-20.95899 -21.08789,-20.95898 z m 0,2 c 10.55803,-1e-5 19.0879,8.47998 19.08789,18.95898 0,10.479 -8.52986,18.95899 -19.08789,18.95899 -10.55802,0 -19.08984,-8.47999 -19.08984,-18.95899 0,-10.479 8.53182,-18.95899 19.08984,-18.95898 z m -20.77645,18.84298 c -0.20601,1.17454 -0.31419,2.38209 -0.31419,3.61475 0,11.56695 9.45777,20.95893 21.08967,20.95893 11.63189,0 21.08967,-9.39198 21.08967,-20.95893 0,-1.23265 -0.10819,-2.44022 -0.3142,-3.61475 h -2.03553 c 0.22697,1.17037 0.34985,2.37805 0.34985,3.61475 0,10.47902 -8.53177,18.95905 -19.08979,18.95906 -10.55803,0 -19.08979,-8.48004 -19.08979,-18.95906 0,-1.2367 0.12287,-2.44438 0.34985,-3.61475 z" />
        </g>
      </g>
    </g>
  </g>
</svg>
